<svg width="430" height="438" viewBox="0 0 430 438" fill="none" xmlns="http://www.w3.org/2000/svg">
<path d="M198.386 176.77L199.219 177.325L201.164 186.771L203.387 193.995L205.332 199.274L207.276 203.719L210.333 208.72L212.833 212.054L213.944 213.166V213.721L215.056 214.277L217.278 216.222L221.168 218.444L224.78 219.556H232.003L237.004 218.167L240.894 216.222L243.672 214.555V215.388L240.894 217.611L236.449 220.667L233.393 223.167L230.614 225.668L226.725 229.558L224.502 233.169L223.391 236.503L223.113 238.448V245.394L224.224 251.784L226.725 259.841L229.503 267.343L233.115 275.678L232.837 276.233L226.169 269.565L223.668 266.509L220.89 263.175L217.556 258.452L213.944 252.618L210.333 245.95L207.832 240.393L204.776 232.336L202.553 224.834L200.608 216.5L198.941 205.664L198.386 200.663L198.108 196.218V181.215L198.386 176.77Z" fill="#FAD201"/>
<path d="M194.774 277.345H217.556L225.891 277.9L237.282 279.29L245.062 280.679L254.508 282.901L263.121 285.402L271.178 288.18L278.401 291.236L286.458 295.126L290.904 297.626L291.182 298.46L288.125 297.626L279.513 295.126L268.399 292.348L256.453 289.847L244.784 287.902L229.225 285.958L219.501 285.124L213.944 284.846H198.664L188.939 285.402L176.159 286.791L162.545 288.736L149.209 291.236L137.541 294.015L128.094 296.515L121.982 298.46L121.148 298.182L123.927 296.515L130.317 293.181L138.096 289.569L143.931 287.347L153.377 284.291L160.323 282.346L170.603 280.123L181.716 278.456L189.773 277.623L194.774 277.345Z" fill="#1E3A8A"/>
<path d="M173.937 214.833L175.326 215.11L179.771 217.611L183.661 219L186.439 219.556H192.829L196.441 218.444H197.274L199.775 228.446L202.831 237.615L205.609 244.283L206.721 246.505V247.895L205.054 250.673L203.387 253.729L200.608 258.174L196.997 263.175L193.94 266.787L191.44 269.843L186.995 274.289L185.328 276.233H184.772L185.605 273.733L188.662 266.787L191.44 259.008L193.107 253.729L194.218 249.006L194.774 245.394V238.448L193.94 234.559L191.996 230.669L188.939 227.335L188.106 226.501V225.946L186.995 225.39L185.05 223.445L180.327 219.833L175.048 216.222L173.937 215.388V214.833Z" fill="#25B14C"/>
<path d="M176.437 132.872L179.215 133.428L181.994 134.539L184.772 136.484L186.439 137.873L188.939 141.207L190.884 145.375L191.718 147.875L191.996 149.542V155.099L191.44 157.877L190.051 161.211L188.939 163.156L188.106 162.878L185.605 158.71L183.383 154.265L181.16 148.986L178.66 142.041L178.382 142.596L179.215 148.153L180.882 154.821L182.827 160.377L184.494 165.101L183.938 165.378L179.493 163.156L176.715 160.933L174.77 158.71L173.103 156.21L171.158 151.487L170.603 148.153V143.985L171.436 140.096L173.659 135.65L175.326 133.706L176.437 132.872Z" fill="#25B14C"/>
<path d="M214.5 138.151L216.167 138.984L218.39 141.485L220.334 145.375L221.168 148.986V153.987L220.612 157.321L219.223 160.933L217.278 164.267L214.222 167.601L210.333 170.102L208.943 170.379V164.823L210.61 154.265L212.555 146.764L211.722 147.597L209.221 153.154L206.999 159.822L205.332 167.045L204.776 169.268L203.665 168.99L201.442 165.378L200.331 161.767L200.053 160.377V155.376L201.164 150.653L203.387 146.208L205.332 143.708L208.11 140.929L212 138.984L214.5 138.151Z" fill="#25B14C"/>
<path d="M133.929 175.103H140.875L144.208 175.936L146.987 177.047L150.043 178.992L152.543 181.215L154.488 183.993L155.322 185.66L152.821 185.382L145.042 183.993L140.041 183.438H131.984L131.706 183.715L137.263 184.827L142.264 185.938L149.765 188.161L153.377 189.55V190.661L151.432 192.328L146.987 194.551L143.375 195.384H136.985L132.817 194.273L128.65 192.05L125.872 189.828L123.371 186.494L122.26 183.993L122.538 182.048L125.038 179.27L126.983 177.603L131.15 175.658L133.929 175.103Z" fill="#FAD201"/>
<path d="M241.172 135.373H243.672L245.339 137.317L247.006 140.651L247.84 143.708V148.708L247.284 151.765L245.617 155.932L243.95 158.71L241.45 161.489L238.949 163.711L235.615 165.378L233.948 165.934H232.837L233.115 162.878L234.782 156.488L237.004 149.82L239.227 144.541L239.783 143.152L238.394 144.541L235.893 148.431L232.559 154.821L229.503 162.322L228.669 164.823L227.836 163.989L226.447 161.211L225.613 157.877V152.876L226.447 148.986L227.836 145.93L229.225 143.43L231.448 140.651L233.393 138.707L236.171 137.04L238.671 135.928L241.172 135.373Z" fill="#1E3A8A"/>
<path d="M276.734 172.324H281.735L286.181 173.436L289.515 175.103L292.571 177.603L293.96 179.548L294.238 180.937L292.293 184.827L289.792 187.605L287.57 189.55L284.236 191.217L279.791 192.606L277.846 192.884H273.4L268.955 191.772L264.788 189.55L262.565 187.883V187.049L269.511 184.549L276.734 182.604L283.958 181.215L284.792 180.937L284.236 180.659H278.401L271.456 181.215L264.788 182.326L262.287 182.882L261.176 182.604L263.676 178.992L265.065 177.603L267.288 175.658L271.733 173.436L274.79 172.602L276.734 172.324Z" fill="#F4C020"/>
<path d="M259.787 157.877H263.121L266.455 158.71L267.844 159.822L268.399 161.767V165.101L267.566 168.435L265.621 172.046L262.565 175.38L259.509 177.603L255.897 179.27L253.119 179.826H248.673L247.562 179.548L248.118 178.159L251.174 174.269L255.619 169.546L259.509 165.934L261.176 164.545L259.509 165.101L256.73 166.768L252.841 169.546L248.673 173.158L246.451 175.103L244.506 176.77V172.324L245.617 168.712L247.562 165.378L250.618 162.044L253.396 160.1L257.008 158.433L259.787 157.877Z" fill="#25B14C"/>
<path d="M153.377 158.988H157.822L161.434 159.822L165.324 162.044L168.102 164.545L170.047 166.768L172.27 171.213L172.825 173.713V176.77L171.436 176.492L166.435 173.713L162.268 170.935L158.378 167.879L155.322 165.656L157.544 168.712L162.545 173.713L165.602 176.214L169.769 179.27L170.325 179.548L170.047 180.659L168.38 180.937H164.49L160.878 180.104L157.544 178.437L155.044 176.492L152.543 173.991L150.599 170.935L149.209 166.768L148.932 164.267L149.487 160.933L150.599 159.822L153.377 158.988Z" fill="#1E3A8A"/>
<path d="M201.72 112.59H203.387L205.332 114.535L206.721 117.036L207.554 120.092V124.815L206.165 128.982L204.498 131.761L202.553 133.983L199.497 135.928H198.386V132.872L198.941 128.149L200.331 121.481L200.886 118.98H200.331L199.775 120.925L198.386 124.259L196.719 129.816L195.607 135.095L195.052 135.65L193.385 133.428L191.996 129.538L191.718 126.204L192.551 122.037L193.94 118.703L196.163 115.924L198.108 114.257L200.886 112.868L201.72 112.59Z" fill="#25B14C"/>
<path d="M218.39 112.868L221.168 113.146L223.668 114.257L226.169 116.202L227.836 118.147L230.059 122.592L230.614 124.537V130.094L228.947 134.539H228.114L225.335 130.094L223.113 125.648L220.612 120.092L220.334 119.536L220.89 123.148L222.557 128.705L224.78 134.539L225.335 135.373V136.206L223.668 135.928L220.612 134.261L218.112 131.761L216.445 128.982L215.056 125.648L214.778 124.537V119.258L215.889 115.924L217.834 113.424L218.39 112.868Z" fill="#FAD201"/>
<path d="M283.125 132.872H285.903L287.292 133.428L288.403 135.65L288.681 136.762V141.763L287.57 145.097L285.903 147.875L283.402 150.653L280.624 152.598L277.29 153.709L273.956 153.987L274.512 152.876L277.568 149.264L280.902 144.263L283.125 140.374L283.68 138.984L282.291 140.374L279.235 143.985L277.29 146.208L272.289 151.209L271.456 151.487L270.9 150.098L270.622 147.319L271.456 143.152L273.678 138.984L276.179 136.206L278.957 134.261L282.013 133.15L283.125 132.872Z" fill="#FAD201"/>
<path d="M243.95 102.311H245.895L247.84 103.978L249.785 107.867L250.34 109.812V115.091L249.507 117.869L247.84 121.203L245.339 123.981L242.839 125.648L241.172 125.926L242.005 123.426L243.395 117.869L244.506 109.812V108.701L243.672 110.923L241.45 118.147L239.783 122.314L238.394 124.815L237.56 124.537L235.615 120.647L235.06 118.703V113.702L236.449 109.256L238.394 106.2L240.616 103.978L243.95 102.311Z" fill="#25B14C"/>
<path d="M146.987 132.039H151.154L154.21 132.872L156.711 134.261L158.934 135.928L161.156 138.707L162.823 142.041L163.379 144.263V148.986L161.99 148.708L157.544 145.097L154.766 142.596L152.266 140.096V139.54H151.71L150.321 138.151L150.599 139.262L153.099 142.874L156.155 146.486L158.656 149.264L160.601 151.209L160.323 152.042L156.711 151.765L153.099 150.653L150.599 148.986L148.376 147.042L146.431 144.263L145.042 140.651L144.486 138.151L144.764 135.373L145.598 132.872L146.987 132.039Z" fill="#F4C01F"/>
<path d="M263.398 112.312L264.788 112.59L267.01 114.535L268.677 117.869L269.233 120.092V125.093L268.122 128.982L266.455 131.761L264.51 133.983L261.454 135.928L260.342 136.206L260.62 134.539L261.731 130.649L263.121 123.704L263.398 119.258L262.843 120.37L260.342 128.427L258.397 133.15L257.286 134.817L256.175 134.261L254.508 130.649L253.952 128.427V123.981L255.063 120.37L257.008 116.758L259.509 114.257L263.398 112.312Z" fill="#F4BF1D"/>
<path d="M204.22 209.276H205.332V209.832L206.721 210.387L208.666 212.888L208.943 214.555L208.666 215.11H210.333L212 215.944L212.833 216.777V217.333L215.889 218.167L216.445 219.833L217.834 220.389L219.779 221.5L220.89 222.612H219.223L220.612 224.001L221.446 223.445L222.557 225.668L221.446 227.335L219.501 227.891L218.945 229.835L217.556 230.391L216.723 230.113V230.669L215.333 231.502H214.5L213.944 232.892L213.389 233.725L212.277 233.169V232.336H211.444L210.055 230.113L209.777 228.168L208.943 227.613V227.057H208.388L208.11 226.501L206.443 225.946L206.165 224.279L207.276 219.833L207.554 218.444H206.999L207.276 217.055L206.443 216.5L205.887 215.11L205.332 214.833V214.277H204.776L204.22 212.888L204.776 211.221L204.22 209.276Z" fill="#FAD201"/>
<path d="M123.093 146.208H128.372L131.15 147.042L134.484 148.986L136.429 151.209L137.818 153.709V153.987H134.762L127.816 152.876L123.371 151.765H122.538L125.872 153.432L130.873 155.099L136.985 156.488V157.321L133.929 158.988L131.15 159.544H127.539L123.927 158.433L121.426 156.766L119.204 154.543L117.537 151.209L117.814 149.264L119.759 147.597L121.982 146.486L123.093 146.208Z" fill="#1E3A8A"/>
<path d="M227.558 200.107H231.17L233.393 201.219L234.782 202.608L235.893 204.275L236.449 205.942V207.887L235.337 210.943L233.393 212.888L231.726 213.721L230.336 213.999H228.114L225.613 213.166L223.946 211.776L222.557 208.998L222.279 208.165V205.664L223.391 203.164L224.78 201.497L227.558 200.107Z" fill="#1E3A8A"/>
<path d="M185.883 200.107H189.495L192.273 201.497L193.663 203.164L194.774 205.664V208.72L193.385 211.221L191.996 212.61L190.051 213.721L188.939 213.999H186.717L184.216 213.166L181.994 211.221L180.882 208.998L180.604 206.22L181.716 203.164L182.827 201.774L185.05 200.385L185.883 200.107Z" fill="#1E3A8A"/>
<path d="M218.945 177.047H219.501L219.779 177.881V197.607L218.945 206.498L218.39 210.943L218.112 211.776L217 211.221L214.5 208.442L211.722 204.275L211.166 203.164L211.444 201.774L213.667 196.773L215.611 190.661L217.834 182.048L218.667 177.325L218.945 177.047Z" fill="#25B14C"/>
<path d="M162.545 109.256H164.212L166.991 111.757L168.658 115.091L168.936 116.48V120.925L167.824 123.981L165.602 127.038L164.49 127.593L163.657 124.259L163.379 121.203V114.535H162.823L162.268 117.869V127.593L161.156 127.315L159.211 125.093L157.822 122.037L157.544 120.925V116.48L158.656 113.424L160.323 110.923L162.545 109.256Z" fill="#FAD201"/>
<path d="M283.958 156.488H287.292L290.07 157.321L292.293 158.988L292.571 159.544V161.211L290.904 163.989L288.403 166.212L286.181 167.323L283.68 167.879H281.18L278.679 167.323L276.179 165.656V165.101L282.291 163.711L286.736 162.044L287.57 161.489L284.514 162.044L280.624 162.878L276.179 163.156L275.901 162.044L278.124 159.266L280.624 157.599L283.958 156.488Z" fill="#25B14C"/>
<path d="M163.657 193.717H166.435L170.047 194.829L172.27 196.218L174.492 198.44L175.048 199.274V200.385H172.27L167.546 199.552L163.379 198.718L165.046 199.83L170.047 201.497L174.77 202.33L174.214 203.441L171.436 204.831L169.769 205.108H166.991L163.379 203.997L160.601 202.052L158.934 199.83L158.378 198.163L158.656 196.218L160.045 195.106L162.823 193.995L163.657 193.717Z" fill="#25B14C"/>
<path d="M251.174 192.328H254.23L257.286 193.439L259.231 195.106L259.509 196.218L258.397 198.718L256.453 200.941L254.786 202.33L251.174 203.441H246.729L243.395 202.052V200.941L250.062 199.274L254.786 197.329L252.841 197.607L247.006 198.718L242.561 198.996L242.839 197.885L244.506 195.662L246.451 193.995L248.673 192.884L251.174 192.328Z" fill="#25B14C"/>
<path d="M178.66 178.159H182.549L184.772 178.992L187.272 180.937L188.939 182.882L190.329 186.216L190.606 187.883V190.105L190.329 190.661L188.939 190.105L184.494 185.938L182.271 183.438L181.16 182.048L181.716 183.715L183.661 186.771L186.717 190.105L188.384 192.05V192.606H186.439L183.661 191.772L181.438 190.383L179.215 188.161L177.548 184.549L177.271 183.438V180.659L178.104 178.437L178.66 178.159Z" fill="#1E3A8A"/>
<path d="M237.004 176.492L239.227 176.77L240.061 177.881L240.338 178.992V182.048L239.505 184.827L237.56 187.883L234.504 190.105L232.003 190.939L229.781 191.217L229.225 190.661L230.614 189.272L233.948 185.382L236.171 181.771L236.449 181.215L235.893 180.937L235.337 182.048L231.17 186.494L228.114 188.994L227.28 188.716V185.104L228.392 182.048L230.892 178.992L233.393 177.325L234.782 176.77L237.004 176.492Z" fill="#F4C123"/>
<path d="M260.898 142.596H263.954L265.343 143.985L265.621 145.097V148.153L264.51 151.209L262.843 153.709L260.62 155.654L257.842 156.766L256.73 157.043H254.786L255.341 155.654L257.564 153.432L260.342 149.82L261.731 147.042H261.176L260.62 148.153L255.341 153.432L253.396 155.099H252.563V150.931L253.952 147.597L256.453 144.819L257.842 143.708L260.898 142.596Z" fill="#F4C122"/>
<path d="M131.428 161.767H136.151L138.652 162.878V163.711L134.484 165.934L128.928 168.157L131.984 167.879L136.985 166.212L139.208 165.101H140.041L139.763 166.49L137.818 168.99L135.596 170.935L133.651 171.769L132.262 172.046H128.65L126.427 171.213L124.482 169.824V168.157L125.872 165.378L127.816 163.434L130.595 162.044L131.428 161.767Z" fill="#1E3A8A"/>
<path d="M131.428 128.982L133.929 129.26L135.596 130.094L137.541 132.039L138.652 134.261L139.208 136.206V139.54L138.374 141.763L137.263 141.207L135.596 138.429L133.095 132.872L133.373 135.65L134.762 139.262L136.151 142.041V142.874L134.484 142.596L132.262 140.929L130.595 138.707L129.483 135.65V132.594L130.595 129.816L131.428 128.982Z" fill="#1E3A8A"/>
<path d="M207.554 178.714H210.333L212 179.548L213.944 181.771L214.222 182.604V185.382L212.833 187.605L211.444 188.716L208.666 189.272L206.165 188.438L204.22 186.216L203.665 184.827L203.942 182.326L205.332 180.104L207.554 178.714Z" fill="#25B14C"/>
<path d="M211.444 101.477L213.111 101.755L215.333 103.978L216.445 106.756V111.201L215.611 113.146L213.944 115.369L213.111 115.646L212.833 108.145L212.555 105.922H212V111.201L211.444 115.091H210.61L208.943 113.146L207.832 110.09V107.034L208.943 103.978L210.888 101.755L211.444 101.477Z" fill="#1E3A8A"/>
<path d="M178.104 110.368L180.882 110.923L183.105 112.312L184.772 114.257L185.883 116.48L186.161 117.869V120.925L185.883 121.759L184.772 121.203L182.549 118.703L180.604 115.924L179.493 114.257L178.938 113.979L180.327 117.036L182.271 120.37L183.938 122.314V123.148L181.994 122.87L179.771 121.759L177.826 119.814L176.437 117.313L176.159 116.202V112.59L176.993 110.923L178.104 110.368Z" fill="#1E3A8A"/>
<path d="M179.493 180.104H180.604V181.493L181.16 181.771L181.438 183.16L183.105 185.938L185.328 188.716L187.55 190.939L188.384 192.05V192.606H186.439L183.661 191.772L181.438 190.383L179.215 188.161L177.548 184.549L177.271 183.438V180.659L177.826 181.493V182.604L178.104 181.771L178.938 181.215L179.493 180.104Z" fill="#1E3A8A"/>
<path d="M236.171 109.812L236.727 110.09L237.004 110.646L238.116 110.923L239.227 114.257L238.949 115.369L238.116 115.646V117.036L239.505 118.147L239.783 118.703L241.172 118.425L239.783 122.314L238.394 124.815L237.56 124.537L235.615 120.647L235.06 118.703V113.702L236.171 109.812Z" fill="#25B14C"/>
<path d="M211.722 103.978H212.277V104.533L213.111 104.811V106.478H212.555V105.922H212V111.201L211.444 115.091H210.61L208.943 113.146L207.832 110.09V107.034L208.388 105.089L208.666 105.922H210.055L211.722 103.978Z" fill="#1E3A8A"/>
<path d="M185.883 200.107L186.995 200.385L185.605 200.941L185.328 202.608L186.717 202.052H187.55V202.608L188.662 202.33L189.495 203.164L188.662 203.719H187.272V204.275L185.605 203.997V204.831L185.05 205.108L184.772 205.942H183.661L183.938 204.831L182.827 205.108L182.549 206.498L183.383 207.609L183.661 209.554L182.549 210.109L181.438 210.387L180.604 207.609L180.882 205.108L181.994 202.886L183.383 201.497L185.05 200.385L185.883 200.107Z" fill="#1E3A8A"/>
<path d="M215.056 238.17L216.167 238.448L216.723 239.282L218.39 239.837V242.894L218.112 243.727L218.39 244.838L217.834 247.339L217.278 247.061L217 245.672L217.278 244.561L216.167 244.005L215.056 242.894V242.338H214.222L214.5 240.949L213.944 240.671L213.667 239.004L215.056 238.17Z" fill="#FAD201"/>
<path d="M181.994 188.716L183.938 189.272L185.05 188.994L186.439 189.828L188.384 192.05V192.606H186.439L183.661 191.772L181.438 190.383L180.882 189.272L181.994 188.716Z" fill="#1E3A8A"/>
<path d="M209.777 108.701L210.055 109.256H211.722V113.979L211.166 115.369L209.499 113.979L208.943 113.146L209.221 112.035L209.777 111.479L209.221 109.256H209.777V108.701Z" fill="#1E3A8A"/>
<path d="M185.883 200.107L186.995 200.385L185.605 200.941L185.328 202.608L186.717 202.052H187.55V202.608L188.662 202.33L189.495 203.164L188.662 203.719H187.272V204.275L185.605 203.997V204.831L185.05 205.108L184.772 205.942H183.661L183.938 204.275L183.661 203.719L183.938 203.164H184.772L184.216 201.774L184.494 200.663L185.883 200.107Z" fill="#1E3A8A"/>
<path d="M135.318 156.488H136.985V157.321L133.929 158.988L132.817 159.266H129.206L129.483 158.433L131.984 157.877L135.318 156.488Z" fill="#1E3A8A"/>
<path d="M180.882 205.942L181.16 206.498L180.882 207.053L182.271 205.942L182.827 206.775L183.383 208.165L183.661 209.554L182.549 210.109L181.438 210.387L180.604 207.609V206.22L180.882 205.942Z" fill="#1E3A8A"/>
<path d="M178.66 178.159H181.16L180.604 178.992L180.882 179.548L180.604 180.104L179.493 180.381L178.66 181.771H178.104L177.826 182.882L177.548 181.493L177.826 178.992L178.66 178.159Z" fill="#1E3A8A"/>
<path d="M238.394 120.925L239.783 121.481L239.505 122.592L238.394 124.815L237.56 124.537L236.727 123.148L237.004 122.037L237.56 121.481H238.394V120.925Z" fill="#25B14C"/>
<path d="M240.616 107.867L241.728 108.979H241.172L240.894 109.812L238.394 109.534L238.671 108.423L240.616 107.867Z" fill="#25B14C"/>
<path d="M198.386 176.77L199.219 177.325L199.497 179.826L198.386 179.548V176.77Z" fill="#FAD201"/>
<path d="M240.616 103.978L241.172 104.255L240.061 105.645V106.2L238.949 106.478L238.394 106.756L238.949 105.645L240.616 103.978ZM238.116 106.756L238.671 107.034L238.394 107.589L237.56 107.312L238.116 106.756Z" fill="#25B14C"/>
</svg>
